# xmcd CD database file
#
# Track frame offsets:
#	150
#	10034
#	46912
#	72765
#	80433
#	86448
#	94739
#	107094
#	115779
#	177981
#	200294
#	228631
#	259579
#	269565
#	287150
#	293038
#	306085
#	327973
#
# Disc length: 4674 seconds
#
# Revision: 0
# Processed by: cddbd v1.5.2PL0 Copyright (c) Steve Scherf et al.
# Submitted via: CDex 1.70beta2
#
DISCID=f5124012
DTITLE=Sun Ra - Live at The Ann Arbor Blues and Jazz Festival 1972-73-74
DYEAR=2011
DGENRE=Jazz
TTITLE0=1972 with his Solar-Myth Arkestra - Enlightenment
TTITLE1=Space is the place
TTITLE2=Untitled improvisation
TTITLE3=Discipline 27-II
TTITLE4=What planet is this
TTITLE5=Life is splendid
TTITLE6=Immeasurable
TTITLE7=Outer spaceways incorporated
TTITLE8=1973 with his Intergalatic Discipline Arkestra - Untitled improvisation
TTITLE9=Discipline 99
TTITLE10=Love in outer space
TTITLE11=Watusi
TTITLE12=Discipline 27-II
TTITLE13=At first there was nothing
TTITLE14=The Universe has more to offer you
TTITLE15=Wake up angels
TTITLE16=The Universe sent me to converse with you
TTITLE17=Outer space employment agency
EXTD=YEAR: 2011
EXTT0=
EXTT1=
EXTT2=
EXTT3=
EXTT4=
EXTT5=
EXTT6=
EXTT7=
EXTT8=
EXTT9=
EXTT10=
EXTT11=
EXTT12=
EXTT13=
EXTT14=
EXTT15=
EXTT16=
EXTT17=
PLAYORDER=
